<svg height="194.306722" viewBox="0 0 51.726036 19.446876" width="514.650235" xmlns="http://www.w3.org/2000/svg"><g transform="matrix(.26458333 0 0 .26458333 53.6575 -95.17062)"><path d="m-202.3 360.2 15.8 29.9-15.8 29.9h8.2l11.8-22.5 1.9 3.6-9.8 18.9h9l5.3-10 5.3 10 5.3-10 5.3 10h9.3l-21.6-41.3h-.1l1.9-3.7 1.9 3.7 21.6 41.3h7.9l-15.8-29.9 15.8-29.9h-8.4l-11.6 22.2-1.9-3.7 9.7-18.5h-8.8l-5.3 10-5.3-10-5.3 10-5.3-10h-9.1l21.3 40.8h.1l-1.9 3.7-1.9-3.7-21.4-40.8z" fill="#06c"/><path d="m-41.6 380.3v39.8h7.2v-39.8zm-80.7 2.2 2.2 3.8-11.4 33.9h8l2.5-8.6h12.6l2.6 8.6h8l-12.4-37.7h-3.4-5.3zm7.5 6.5h.2c.1 1.4.3 2.5.5 3.3l3.9 13.1h-9.2l3.9-13.2c.4-1.1.6-2.1.7-3.2zm56.7 3.6c-1.3 0-2.9.2-4.8.6s-3.4 1-4.5 1.7v6.1c2.6-1.9 5.4-2.9 8.3-2.9 3 0 4.5 1.6 4.5 4.7l-6.8 1c-5.6.8-8.5 3.8-8.5 9 0 2.5.7 4.5 2.1 5.9 1.4 1.5 3.3 2.2 5.6 2.2 3.2 0 5.7-1.5 7.4-4.6h.1v3.9h6.8v-16.3c.2-7.6-3.3-11.3-10.2-11.3zm40 0c-1.3 0-2.9.2-4.8.6s-3.4 1-4.5 1.7v6.1c2.6-1.9 5.4-2.9 8.3-2.9 3 0 4.5 1.6 4.5 4.7l-6.8 1c-5.6.8-8.4 3.8-8.4 9 0 2.5.7 4.5 2.1 5.9 1.4 1.5 3.3 2.2 5.6 2.2 3.2 0 5.7-1.5 7.4-4.6h.1v3.9h6.8v-16.3c0-7.6-3.4-11.3-10.3-11.3zm-79.4.6 10 26.9-1.3 3.5c-.8 2.1-2.2 3.1-4.2 3.1-1.2 0-2.2-.3-3.2-.9v6.3c1 .4 2.5.6 4.3.6 4.7 0 8.3-3.4 10.6-10.2l10.2-29.3h-7.1l-4.9 16.9c-.4 1.4-.6 2.5-.7 3.4h-.2c-.1-1.3-.4-2.4-.7-3.4l-4.8-16.9zm43 14.1v1.9c0 1.7-.5 3.1-1.4 4.2-1 1.1-2.2 1.7-3.6 1.7-1.1 0-1.9-.3-2.6-.9-.6-.6-.9-1.4-.9-2.4 0-2.2 1.3-3.5 3.9-3.8zm39.9 0v1.9c0 1.7-.5 3.1-1.4 4.2-1 1.1-2.2 1.7-3.7 1.7-1.1 0-1.9-.3-2.5-.9s-1-1.4-1-2.4c0-2.2 1.3-3.5 3.9-3.8z" fill="#f0781e"/></g></svg>